<?xml version="1.0" encoding="UTF-8" standalone="no"?>
<!-- Uploaded to: SVG Repo, www.svgrepo.com, Generator: SVG Repo Mixer Tools -->

<svg
   width="800px"
   height="800px"
   viewBox="0 0 24 24"
   fill="none"
   version="1.1"
   id="svg1"
   sodipodi:docname="mail-alt-svgrepo-com.svg"
   inkscape:export-filename="mail-alt-svgrepo-com.png"
   inkscape:export-xdpi="300"
   inkscape:export-ydpi="300"
   inkscape:version="1.3.2 (091e20e, 2023-11-25, custom)"
   xmlns:inkscape="http://www.inkscape.org/namespaces/inkscape"
   xmlns:sodipodi="http://sodipodi.sourceforge.net/DTD/sodipodi-0.dtd"
   xmlns="http://www.w3.org/2000/svg"
   xmlns:svg="http://www.w3.org/2000/svg">
  <defs
     id="defs1" />
  <sodipodi:namedview
     id="namedview1"
     pagecolor="#ffffff"
     bordercolor="#000000"
     borderopacity="0.25"
     inkscape:showpageshadow="2"
     inkscape:pageopacity="0.0"
     inkscape:pagecheckerboard="0"
     inkscape:deskcolor="#d1d1d1"
     inkscape:zoom="0.35620504"
     inkscape:cx="151.59808"
     inkscape:cy="332.67356"
     inkscape:window-width="1920"
     inkscape:window-height="1017"
     inkscape:window-x="-8"
     inkscape:window-y="-8"
     inkscape:window-maximized="1"
     inkscape:current-layer="svg1" />
  <path
     d="M 2.8580899,18.049271 8.5717837,12 M 21.14191,18.049271 15.428217,12 M 1.7153512,7.9671518 9.9716389,12.823305 c 0.7330681,0.431212 1.0995431,0.646871 1.4957311,0.730551 0.350136,0.0741 0.715126,0.0741 1.06526,0 0.396189,-0.08368 0.762665,-0.299339 1.495731,-0.730551 L 22.284649,7.9671518 M 5.3721152,19.057484 H 18.627885 c 1.279982,0 1.920031,0 2.408894,-0.21979 0.430011,-0.193274 0.77969,-0.501787 0.998753,-0.881177 0.249117,-0.431313 0.249117,-0.996013 0.249117,-2.125311 V 8.1687942 c 0,-1.1292983 0,-1.6939576 -0.249117,-2.1252908 C 21.816469,5.6640829 21.46679,5.3556103 21.036779,5.1622959 20.547916,4.9425156 19.907867,4.9425156 18.627885,4.9425156 H 5.3721152 c -1.2799815,0 -1.9199839,0 -2.4088704,0.2197803 C 2.533198,5.3556103 2.1835655,5.6640829 1.9644569,6.0435034 1.7153512,6.4748366 1.7153512,7.0394858 1.7153512,8.1687942 v 7.6624118 c 0,1.129298 0,1.693998 0.2491057,2.125311 0.2191086,0.37939 0.5687411,0.687903 0.9987879,0.881177 0.4888865,0.21979 1.1288773,0.21979 2.4088704,0.21979 z"
     stroke="#000000"
     stroke-width="2.14675"
     stroke-linecap="round"
     stroke-linejoin="round"
     id="path1"
     style="stroke:#cb952c;stroke-opacity:1" />
</svg>
